# Blender v2.90.0 OBJ File: ''
# www.blender.org
mtllib 4.mtl
o Text.004
v 0.471000 0.050000 -0.312000
v 0.471000 0.050000 -0.224000
v 0.398000 0.050000 -0.224000
v 0.398000 0.050000 0.000000
v 0.300000 0.050000 0.000000
v 0.300000 0.050000 -0.224000
v 0.011000 0.050000 -0.224000
v 0.011000 0.050000 -0.269000
v 0.356000 0.050000 -0.691000
v 0.398000 0.050000 -0.691000
v 0.398000 0.050000 -0.312000
v 0.300000 0.050000 -0.312000
v 0.300000 0.050000 -0.506000
v 0.298000 0.050000 -0.506000
v 0.142000 0.050000 -0.312000
v 0.471000 -0.050000 -0.312000
v 0.471000 -0.050000 -0.224000
v 0.398000 -0.050000 -0.224000
v 0.398000 -0.050000 0.000000
v 0.300000 -0.050000 0.000000
v 0.300000 -0.050000 -0.224000
v 0.011000 -0.050000 -0.224000
v 0.011000 -0.050000 -0.269000
v 0.356000 -0.050000 -0.691000
v 0.398000 -0.050000 -0.691000
v 0.398000 -0.050000 -0.312000
v 0.300000 -0.050000 -0.312000
v 0.300000 -0.050000 -0.506000
v 0.298000 -0.050000 -0.506000
v 0.142000 -0.050000 -0.312000
v 0.471000 -0.050000 -0.312000
v 0.471000 0.050000 -0.312000
v 0.471000 -0.050000 -0.224000
v 0.471000 0.050000 -0.224000
v 0.398000 -0.050000 -0.224000
v 0.398000 0.050000 -0.224000
v 0.398000 -0.050000 0.000000
v 0.398000 0.050000 0.000000
v 0.300000 -0.050000 0.000000
v 0.300000 0.050000 0.000000
v 0.300000 -0.050000 -0.224000
v 0.300000 0.050000 -0.224000
v 0.011000 -0.050000 -0.224000
v 0.011000 0.050000 -0.224000
v 0.011000 -0.050000 -0.269000
v 0.011000 0.050000 -0.269000
v 0.356000 -0.050000 -0.691000
v 0.356000 0.050000 -0.691000
v 0.398000 -0.050000 -0.691000
v 0.398000 0.050000 -0.691000
v 0.398000 -0.050000 -0.312000
v 0.398000 0.050000 -0.312000
v 0.300000 -0.050000 -0.312000
v 0.300000 0.050000 -0.312000
v 0.300000 -0.050000 -0.506000
v 0.300000 0.050000 -0.506000
v 0.298000 -0.050000 -0.506000
v 0.298000 0.050000 -0.506000
v 0.142000 -0.050000 -0.312000
v 0.142000 0.050000 -0.312000
vt 0.500000 0.000000
vt 0.642857 0.000000
vt 0.571429 0.000000
vt 0.928571 0.000000
vt 0.857143 0.000000
vt 0.714286 0.000000
vt 1.000000 0.000000
vt 0.785714 0.000000
vt 0.000000 0.000000
vt 0.071429 0.000000
vt 0.428571 0.000000
vt 0.357143 0.000000
vt 0.285714 0.000000
vt 0.142857 0.000000
vt 0.214286 0.000000
vt 0.642857 0.000000
vt 0.500000 0.000000
vt 0.571429 0.000000
vt 0.928571 0.000000
vt 0.857143 0.000000
vt 0.714286 0.000000
vt 1.000000 0.000000
vt 0.785714 0.000000
vt 0.000000 0.000000
vt 0.071429 0.000000
vt 0.428571 0.000000
vt 0.357143 0.000000
vt 0.142857 0.000000
vt 0.285714 0.000000
vt 0.214286 0.000000
vt 0.090909 1.000000
vt 0.000000 0.000000
vt 0.000000 1.000000
vt 0.181818 1.000000
vt 0.090909 0.000000
vt 0.272727 1.000000
vt 0.181818 0.000000
vt 0.363636 1.000000
vt 0.272727 0.000000
vt 0.454545 1.000000
vt 0.363636 0.000000
vt 0.545455 1.000000
vt 0.454545 0.000000
vt 0.636364 1.000000
vt 0.545455 0.000000
vt 0.727273 1.000000
vt 0.636364 0.000000
vt 0.818182 1.000000
vt 0.727273 0.000000
vt 0.909091 1.000000
vt 0.818182 0.000000
vt 1.000000 1.000000
vt 0.909091 0.000000
vt 0.250000 1.000000
vt 0.000000 0.000000
vt 0.000000 1.000000
vt 0.500000 1.000000
vt 0.250000 0.000000
vt 0.750000 1.000000
vt 0.500000 0.000000
vt 1.000000 1.000000
vt 0.750000 0.000000
vt 1.000000 0.000000
vt 1.000000 0.000000
vn 0.0000 1.0000 -0.0000
vn 0.0000 0.0000 -1.0000
vn 0.0000 0.0000 1.0000
vn 0.0000 -1.0000 0.0000
vn 0.7071 0.0000 0.7071
vn 0.7071 0.0000 -0.7071
vn -0.7071 0.0000 0.7071
vn -0.9418 0.0000 -0.3360
vn -0.4284 0.0000 -0.9036
vn -0.7071 0.0000 -0.7071
vn 0.4321 0.0000 0.9018
vn 0.9018 0.0000 -0.4321
usemtl None
s off
f 8/1/1 10/2/1 9/3/1
f 8/1/1 14/4/1 10/2/1
f 14/4/1 13/5/1 10/2/1
f 13/5/1 11/6/1 10/2/1
f 8/1/1 15/7/1 14/4/1
f 12/8/1 11/6/1 13/5/1
f 8/1/1 12/8/1 15/7/1
f 8/1/1 11/6/1 12/8/1
f 8/1/1 1/9/1 11/6/1
f 8/1/1 2/10/1 1/9/1
f 7/11/1 2/10/1 8/1/1
f 6/12/2 2/10/2 7/11/2
f 5/13/1 3/14/1 6/12/1
f 3/14/3 2/10/3 6/12/3
f 5/13/1 4/15/1 3/14/1
f 25/16/4 23/17/4 24/18/4
f 29/19/4 23/17/4 25/16/4
f 28/20/4 29/19/4 25/16/4
f 26/21/4 28/20/4 25/16/4
f 30/22/4 23/17/4 29/19/4
f 26/21/4 27/23/4 28/20/4
f 27/23/4 23/17/4 30/22/4
f 26/21/4 23/17/4 27/23/4
f 16/24/4 23/17/4 26/21/4
f 17/25/4 23/17/4 16/24/4
f 17/25/4 22/26/4 23/17/4
f 17/25/2 21/27/2 22/26/2
f 18/28/4 20/29/4 21/27/4
f 17/25/3 18/28/3 21/27/3
f 19/30/4 20/29/4 18/28/4
s 1
f 34/31/5 31/32/6 32/33/6
f 36/34/5 33/35/5 34/31/5
f 38/36/5 35/37/5 36/34/5
f 40/38/7 37/39/5 38/36/5
f 42/40/7 39/41/7 40/38/7
f 44/42/7 41/43/7 42/40/7
f 46/44/8 43/45/7 44/42/7
f 48/46/9 45/47/8 46/44/8
f 50/48/6 47/49/9 48/46/9
f 52/50/6 49/51/6 50/48/6
f 32/52/6 51/53/6 52/50/6
f 56/54/7 53/55/10 54/56/10
f 58/57/11 55/58/7 56/54/7
f 60/59/12 57/60/11 58/57/11
f 54/61/10 59/62/12 60/59/12
f 34/31/5 33/35/5 31/32/6
f 36/34/5 35/37/5 33/35/5
f 38/36/5 37/39/5 35/37/5
f 40/38/7 39/41/7 37/39/5
f 42/40/7 41/43/7 39/41/7
f 44/42/7 43/45/7 41/43/7
f 46/44/8 45/47/8 43/45/7
f 48/46/9 47/49/9 45/47/8
f 50/48/6 49/51/6 47/49/9
f 52/50/6 51/53/6 49/51/6
f 32/52/6 31/63/6 51/53/6
f 56/54/7 55/58/7 53/55/10
f 58/57/11 57/60/11 55/58/7
f 60/59/12 59/62/12 57/60/11
f 54/61/10 53/64/10 59/62/12
