# Blender v2.90.0 OBJ File: ''
# www.blender.org
mtllib expolsion.mtl
o Circle
v 0.023627 0.000000 -0.826737
v -0.250219 0.000000 -1.201302
v -0.382683 0.000000 -0.923880
v -0.783962 0.000000 -1.185871
v -0.707107 0.000000 -0.707107
v -1.154369 0.000000 -0.634326
v -0.766368 0.000000 -0.248798
v -1.602956 0.000000 -0.344726
v -1.000000 0.000000 -0.000000
v -1.303684 0.000000 0.328975
v -0.663985 0.000000 0.303927
v -1.296129 0.000000 0.909971
v -0.707107 0.000000 0.707107
v -0.468939 0.000000 0.697585
v -0.500817 0.000000 1.120769
v -0.195090 0.000000 0.980785
v -0.007875 0.000000 0.692852
v 0.195091 0.000000 0.980785
v 0.792214 0.000000 1.309783
v 0.555571 0.000000 0.831469
v 0.604725 0.000000 0.588973
v 0.713336 0.000000 0.405934
v 1.144396 0.000000 0.445687
v 0.980785 0.000000 0.195089
v 1.479332 0.000000 -0.000001
v 0.728766 0.000000 -0.139962
v 1.215276 0.000000 -0.563823
v 0.831469 0.000000 -0.555571
v 0.872493 0.000000 -0.919748
v 0.618574 0.000000 -0.886599
v 0.359055 0.000000 -0.758493
v 0.218716 0.000000 -1.201302
v 0.000000 0.000000 0.000000
vt 0.021966 0.391864
vt 0.116688 0.362529
vt 0.393699 0.527769
vt 0.051792 0.222235
vt 0.201009 0.269100
vt 0.245104 0.129748
vt 0.350047 0.271569
vt 0.358461 0.000088
vt 0.440353 0.208610
vt 0.559517 0.127035
vt 0.521678 0.330031
vt 0.744595 0.156552
vt 0.652368 0.335079
vt 0.638218 0.410648
vt 0.774768 0.420217
vt 0.715828 0.511262
vt 0.615197 0.557580
vt 0.697624 0.635792
vt 0.774768 0.841719
vt 0.633150 0.743877
vt 0.553462 0.748251
vt 0.489976 0.774376
vt 0.482553 0.913808
vt 0.410205 0.849898
vt 0.324681 0.999912
vt 0.315028 0.753832
vt 0.157052 0.889331
vt 0.177591 0.767221
vt 0.059447 0.763324
vt 0.081873 0.683829
vt 0.134867 0.606978
vt 0.000088 0.541529
vt 0.128736 0.496739
vn 0.0000 1.0000 0.0000
usemtl Material.001
s off
f 2/1/1 3/2/1 33/3/1
f 3/2/1 4/4/1 33/3/1
f 4/4/1 5/5/1 33/3/1
f 5/5/1 6/6/1 33/3/1
f 6/6/1 7/7/1 33/3/1
f 7/7/1 8/8/1 33/3/1
f 8/8/1 9/9/1 33/3/1
f 9/9/1 10/10/1 33/3/1
f 10/10/1 11/11/1 33/3/1
f 11/11/1 12/12/1 33/3/1
f 12/12/1 13/13/1 33/3/1
f 13/13/1 14/14/1 33/3/1
f 14/14/1 15/15/1 33/3/1
f 15/15/1 16/16/1 33/3/1
f 16/16/1 17/17/1 33/3/1
f 17/17/1 18/18/1 33/3/1
f 18/18/1 19/19/1 33/3/1
f 19/19/1 20/20/1 33/3/1
f 20/20/1 21/21/1 33/3/1
f 21/21/1 22/22/1 33/3/1
f 22/22/1 23/23/1 33/3/1
f 23/23/1 24/24/1 33/3/1
f 24/24/1 25/25/1 33/3/1
f 25/25/1 26/26/1 33/3/1
f 26/26/1 27/27/1 33/3/1
f 27/27/1 28/28/1 33/3/1
f 28/28/1 29/29/1 33/3/1
f 29/29/1 30/30/1 33/3/1
f 30/30/1 31/31/1 33/3/1
f 31/31/1 32/32/1 33/3/1
f 32/32/1 1/33/1 33/3/1
f 1/33/1 2/1/1 33/3/1
