# Blender v2.90.0 OBJ File: ''
# www.blender.org
mtllib tank.mtl
o Cube.027
v 3.030681 0.769110 2.195631
v 3.030681 -1.230891 4.195631
v 3.030681 -1.230890 2.195630
v 3.030681 -1.230887 -2.789838
v 1.017007 0.769113 -2.789837
v 3.030681 0.769113 -2.789837
v -3.034354 -1.230890 2.195630
v -0.982993 -1.230890 3.195630
v -0.982993 -1.230891 4.195631
v -0.982993 -1.230887 -2.789838
v -2.008674 0.769113 -2.789837
v -0.982993 0.769113 -2.789837
v -3.034354 -1.230887 -2.789838
v -0.982993 -1.230890 2.195630
v -3.034354 0.769113 -2.789837
v 1.017007 -1.230890 2.195630
v 1.017007 0.769112 -0.297103
v 1.017007 0.769110 0.363312
v 1.017007 -1.230887 -2.789838
v -0.982993 0.769110 0.363312
v -2.008674 -1.230891 4.195631
v -3.034354 -1.230890 3.195630
v -3.034354 -0.230890 3.195631
v -3.034354 -0.230890 2.195631
v -0.982993 2.364688 -2.330623
v 0.017007 0.769110 2.195631
v -0.418824 1.822524 3.352807
v 0.452838 1.822526 0.666489
v -0.418824 1.822526 0.666489
v -3.034354 0.269110 2.695631
v -3.034354 0.769110 2.195631
v -3.034354 -0.730890 3.695631
v -0.982993 -0.230890 3.195631
v -0.982993 0.769110 2.195631
v -3.034354 -1.230891 4.195631
v -2.008674 0.769110 2.195631
v 1.017007 -0.230890 3.195631
v 1.017007 -1.230891 4.195631
v 1.017007 2.364687 0.162111
v 1.017007 2.364688 -2.330623
v -0.982993 2.364687 0.822526
v 1.017007 2.364687 0.822526
v -0.418824 1.311271 4.505666
v -0.418824 1.822524 4.652807
v -0.523804 1.210388 0.490314
v 0.557818 1.210388 0.490314
v 0.557818 1.923409 0.695524
v -0.523804 1.923409 0.695524
v -0.418824 1.311271 0.519348
v 0.452838 1.311271 0.519348
v -0.418824 1.311271 3.205666
v 1.017007 0.769110 2.195631
v 0.452838 1.822524 3.352807
v 0.452838 1.311271 3.205666
v 0.452838 1.311271 4.505666
v 0.452838 1.822524 4.652807
v 0.017007 -1.230890 2.195630
vt 0.936565 0.028363
vt 0.936565 0.138515
vt 0.881979 0.083439
vt 0.509834 0.710677
vt 0.586882 0.632256
vt 0.586882 0.710677
vt 0.314921 0.237931
vt 0.353519 0.158042
vt 0.392117 0.158042
vt 0.739263 0.712487
vt 0.816311 0.672542
vt 0.816311 0.712487
vt 0.904722 0.358595
vt 0.827526 0.164439
vt 0.904722 0.164438
vt 0.023072 0.102431
vt 0.215502 0.022542
vt 0.215502 0.102431
vt 0.965689 0.630860
vt 0.888493 0.436704
vt 0.965689 0.436704
vt 0.264903 0.096951
vt 0.457333 0.019062
vt 0.457333 0.096951
vt 0.783080 0.207844
vt 0.686865 0.129423
vt 0.712355 0.129423
vt 0.624548 0.712866
vt 0.701597 0.634977
vt 0.701597 0.712866
vt 0.749560 0.566199
vt 0.627854 0.526254
vt 0.627854 0.486310
vt 0.392117 0.197987
vt 0.353519 0.237931
vt 0.965689 0.683566
vt 0.927091 0.722511
vt 0.927091 0.683566
vt 0.019972 0.847473
vt 0.082537 0.769584
vt 0.082537 0.847473
vt 0.690653 0.259260
vt 0.761377 0.298204
vt 0.690653 0.337149
vt 0.590650 0.207844
vt 0.590650 0.129423
vt 0.370234 0.969088
vt 0.336590 0.864471
vt 0.370234 0.864471
vt 0.907792 0.703039
vt 0.888493 0.683566
vt 0.965689 0.722511
vt 0.946390 0.741983
vt 0.553665 0.195984
vt 0.499079 0.195984
vt 0.553665 0.140908
vt 0.695588 0.940747
vt 0.676289 0.940747
vt 0.656990 0.900803
vt 0.656990 0.940747
vt 0.734186 0.900803
vt 0.714887 0.940747
vt 0.695588 0.860858
vt 0.901975 0.873859
vt 0.940573 0.873859
vt 0.940573 0.952280
vt 0.475734 0.193119
vt 0.421148 0.193119
vt 0.475734 0.138044
vt 0.191005 0.700806
vt 0.113809 0.797884
vt 0.113809 0.700806
vt 0.191005 0.823604
vt 0.113809 0.823604
vt 0.106058 0.966554
vt 0.167644 0.958718
vt 0.167644 0.984438
vt 0.106058 0.940834
vt 0.167644 0.861640
vt 0.525120 0.778215
vt 0.544853 0.823112
vt 0.525120 0.828843
vt 0.250941 0.961763
vt 0.189355 0.856849
vt 0.250941 0.838965
vt 0.485031 0.096572
vt 0.677461 0.018151
vt 0.677461 0.096572
vt 0.032570 0.942757
vt 0.014860 0.882751
vt 0.032570 0.900634
vt 0.061186 0.900634
vt 0.078896 0.960640
vt 0.061186 0.942757
vt 0.078896 0.882751
vt 0.014860 0.960640
vt 0.036619 0.938669
vt 0.036619 0.904722
vt 0.057137 0.904722
vt 0.057137 0.938669
vt 0.418802 0.970636
vt 0.399068 0.871749
vt 0.418802 0.866019
vt 0.711349 0.026662
vt 0.788546 0.105083
vt 0.711349 0.105083
vt 0.863377 0.952280
vt 0.826466 0.408042
vt 0.636410 0.446493
vt 0.628305 0.407689
vt 0.314921 0.158042
vt 0.783080 0.129423
vt 0.820284 0.566199
vt 0.627854 0.566199
vt 0.392117 0.237931
vt 0.965689 0.761455
vt 0.526372 0.223522
vt 0.553665 0.251059
vt 0.739263 0.632598
vt 0.816311 0.632598
vt 0.475734 0.248195
vt 0.757963 0.864007
vt 0.832937 0.902951
vt 0.757963 0.941895
vt 0.761377 0.337149
vt 0.335742 0.772185
vt 0.369387 0.822813
vt 0.335742 0.822813
vt 0.465124 0.872569
vt 0.445390 0.971456
vt 0.445390 0.866839
vt 0.496746 0.870009
vt 0.530391 0.974626
vt 0.496746 0.974626
vt 0.453551 0.777339
vt 0.433818 0.822236
vt 0.433818 0.771609
vt 0.393142 0.814446
vt 0.413661 0.780500
vt 0.413661 0.814446
vt 0.477331 0.774867
vt 0.510976 0.825495
vt 0.477331 0.825495
vt 0.509834 0.632256
vt 0.981919 0.358595
vt 0.904722 0.358595
vt 0.904722 0.164438
vt 0.023072 0.022542
vt 0.264903 0.019062
vt 0.624548 0.634977
vt 0.019972 0.769584
vt 0.761377 0.259260
vt 0.336590 0.969088
vt 0.656990 0.860858
vt 0.106058 0.843756
vt 0.544853 0.772485
vt 0.189355 0.979646
vt 0.485031 0.018151
vt 0.399068 0.976366
vt 0.788546 0.026662
vt 0.863377 0.873859
vt 0.832937 0.864007
vt 0.369387 0.772185
vt 0.465124 0.977186
vt 0.530391 0.870009
vt 0.453551 0.827967
vt 0.393142 0.780500
vt 0.510976 0.774867
vt 0.023072 0.018151
vt 0.023072 0.018151
vt 0.023072 0.018151
vt 0.927091 0.630860
vt 0.734186 0.940747
vt 0.832938 0.941895
vt 0.620200 0.368886
vt 0.888493 0.630860
vt 0.734186 0.860858
vn 0.6303 0.7173 0.2971
vn 0.5469 -0.3204 0.7735
vn 0.7071 -0.7071 -0.0000
vn 0.5774 -0.5774 -0.5774
vn 0.2469 0.3836 -0.8899
vn 0.5774 0.5774 -0.5774
vn -0.7071 -0.7071 -0.0000
vn 0.6265 -0.6265 0.4638
vn 0.0000 -0.7071 -0.7071
vn 0.0000 0.7071 -0.7071
vn -0.2469 0.3836 -0.8899
vn -0.5774 -0.5774 -0.5774
vn -0.0518 -0.9474 0.3158
vn -0.5774 0.5774 -0.5774
vn -0.3015 -0.9045 0.3015
vn 0.7071 0.7071 0.0000
vn 0.3778 0.8731 0.3081
vn -0.3778 0.8731 0.3081
vn 0.0000 -0.3827 0.9239
vn -0.7071 0.5000 0.5000
vn -1.0000 0.0000 0.0000
vn -0.5935 0.6430 -0.4840
vn 0.0000 0.7071 0.7071
vn -0.7071 0.7071 0.0000
vn 0.3778 0.0546 0.9243
vn -0.3778 0.0546 0.9243
vn -0.6303 0.7173 0.2971
vn 0.7071 0.5000 0.5000
vn 0.1544 0.8357 0.5270
vn -0.5469 -0.3204 0.7735
vn 0.5935 0.6430 -0.4840
vn -0.5640 0.4966 0.6597
vn 0.5640 0.4966 0.6597
vn -0.5935 -0.6430 0.4840
vn -0.0000 -0.2766 0.9610
vn -0.2339 -0.5210 0.8209
vn 0.2339 -0.5210 0.8209
vn 0.0000 1.0000 0.0000
vn -0.1544 0.8357 0.5270
vn 0.5935 -0.6430 0.4840
vn 0.0000 0.0000 -1.0000
usemtl Material.003
s 1
f 1/1/1 2/2/2 3/3/3
f 4/4/4 5/5/5 6/6/6
f 7/7/7 8/8/8 9/9/2
f 10/10/9 11/11/10 12/12/11
f 4/13/4 1/14/1 3/15/3
f 13/16/12 14/17/13 7/18/7
f 7/19/7 15/20/14 13/21/12
f 10/22/9 16/23/15 14/24/13
f 1/25/1 17/26/16 18/27/17
f 19/28/9 12/29/11 5/30/5
f 20/31/18 11/32/10 15/33/14
f 21/34/19 22/35/7 7/7/7
f 7/36/7 23/37/20 24/38/21
f 25/39/22 5/40/5 12/41/11
f 20/42/18 26/43/23 18/44/17
f 1/25/1 6/45/6 5/46/5
f 27/47/24 28/48/25 29/49/26
f 24/38/21 30/50/20 31/51/27
f 22/52/7 32/53/20 23/37/20
f 33/54/28 14/55/13 34/56/29
f 23/57/20 32/58/20 21/59/19
f 32/58/20 35/60/30 21/59/19
f 23/57/20 36/61/23 30/62/20
f 21/59/19 33/63/28 23/57/20
f 37/64/20 38/65/30 2/66/2
f 37/67/20 16/68/15 38/69/30
f 25/70/22 39/71/16 40/72/31
f 41/73/32 42/74/33 39/71/16
f 18/75/17 39/76/16 42/77/33
f 17/78/16 40/79/31 39/76/16
f 27/80/24 43/81/34 44/82/32
f 20/83/18 25/84/22 12/85/11
f 19/86/9 3/87/3 16/88/15
f 45/89/35 18/90/17 46/91/35
f 47/92/35 41/93/32 48/94/35
f 46/91/35 42/95/33 47/92/35
f 48/94/35 20/96/18 45/89/35
f 49/97/36 46/91/35 50/98/37
f 28/99/25 48/94/35 29/100/26
f 28/99/25 46/91/35 47/92/35
f 29/100/26 45/89/35 49/97/36
f 29/101/26 51/102/7 27/103/24
f 3/104/3 38/105/30 16/106/15
f 1/107/1 37/64/20 2/66/2
f 15/108/14 31/109/27 36/110/38
f 7/7/7 14/111/13 8/8/8
f 1/25/1 5/46/5 17/26/16
f 18/27/17 52/112/39 1/25/1
f 15/33/14 34/113/29 20/31/18
f 20/31/18 12/114/11 11/32/10
f 7/7/7 9/9/2 21/34/19
f 21/34/19 35/115/30 22/35/7
f 24/38/21 23/37/20 30/50/20
f 22/52/7 35/116/30 32/53/20
f 14/55/13 33/54/28 8/117/8
f 8/117/8 33/54/28 9/118/2
f 11/11/10 13/119/12 15/120/14
f 37/67/20 52/121/39 16/68/15
f 16/122/15 26/123/23 14/124/13
f 52/125/39 18/44/17 26/43/23
f 45/89/35 20/96/18 18/90/17
f 47/92/35 42/95/33 41/93/32
f 46/91/35 18/90/17 42/95/33
f 48/94/35 41/93/32 20/96/18
f 49/97/36 45/89/35 46/91/35
f 28/99/25 47/92/35 48/94/35
f 28/99/25 50/98/37 46/91/35
f 29/100/26 48/94/35 45/89/35
f 44/126/32 53/127/16 27/128/24
f 28/129/25 54/130/3 50/131/37
f 54/132/3 49/133/36 50/134/37
f 53/135/16 55/136/40 54/137/3
f 56/138/33 43/139/34 55/140/40
f 55/141/40 51/142/7 54/143/3
f 4/4/4 19/144/9 5/5/5
f 4/145/4 6/146/6 1/147/1
f 13/16/12 10/148/9 14/17/13
f 10/22/9 19/149/9 16/23/15
f 19/28/9 10/150/9 12/29/11
f 7/36/7 22/52/7 23/37/20
f 25/39/22 40/151/31 5/40/5
f 20/42/18 34/152/29 26/43/23
f 27/47/24 53/153/16 28/48/25
f 23/57/20 33/63/28 36/61/23
f 21/59/19 9/154/2 33/63/28
f 25/70/22 41/73/32 39/71/16
f 18/75/17 17/78/16 39/76/16
f 17/78/16 5/155/5 40/79/31
f 27/80/24 51/156/7 43/81/34
f 20/83/18 41/157/32 25/84/22
f 19/86/9 4/158/4 3/87/3
f 29/101/26 49/159/36 51/102/7
f 3/104/3 2/160/2 38/105/30
f 1/107/1 52/161/39 37/64/20
f 11/11/10 10/10/9 13/119/12
f 16/122/15 52/162/39 26/123/23
f 44/126/32 56/163/33 53/127/16
f 28/129/25 53/164/16 54/130/3
f 54/132/3 51/165/7 49/133/36
f 53/135/16 56/166/33 55/136/40
f 56/138/33 44/167/32 43/139/34
f 55/141/40 43/168/34 51/142/7
f 31/169/41 34/170/41 36/171/41
f 15/20/14 7/19/7 24/172/21
f 30/62/20 36/61/23 31/173/27
f 34/174/29 14/124/13 26/123/23
f 34/175/29 15/108/14 36/110/38
f 24/172/21 31/176/27 15/20/14
f 33/63/28 34/177/29 36/61/23
l 57 14
