# Blender v2.90.0 OBJ File: ''
# www.blender.org
mtllib Cannon.mtl
o Cannon_Cube
v -0.890806 0.181023 0.181023
v -0.890806 0.248906 0.000000
v -1.010743 0.153060 0.000000
v -1.008767 0.111238 0.111238
v -0.890806 0.181023 -0.181023
v -1.008767 0.111238 -0.111238
v -1.104152 0.079860 -0.079860
v -1.124188 0.097360 0.000000
v -1.104152 0.079860 0.079860
v -0.555829 -0.483164 -0.483164
v -0.555829 0.000000 -0.664350
v -0.001765 0.000000 -0.761023
v -0.001765 -0.553471 -0.553471
v -0.555829 0.483164 -0.483164
v -0.001765 0.553471 -0.553471
v 0.588421 0.550722 -0.550722
v 0.588421 0.000000 -0.757243
v 0.588421 -0.550722 -0.550722
v 0.588421 0.757243 0.000000
v 0.935353 0.695836 0.000000
v 0.935353 0.506063 -0.506063
v 0.588421 0.550722 0.550722
v 0.935353 0.506063 0.506063
v 1.141809 0.444018 0.444018
v 1.141809 0.610524 0.000000
v 1.141809 0.444018 -0.444018
v 0.588421 -0.550722 0.550722
v 0.588421 -0.000000 0.757243
v -0.001765 -0.000000 0.761023
v -0.001765 -0.553471 0.553471
v -0.001765 0.553471 0.553471
v -0.555829 0.483164 0.483164
v -0.555829 -0.000000 0.664350
v -0.555829 -0.483164 0.483164
v -0.001765 -0.761023 -0.000000
v -0.555829 -0.664350 -0.000000
v 0.588421 -0.757243 -0.000000
v -0.001765 0.761023 0.000000
v -0.555829 0.664350 0.000000
v 1.779256 0.302695 -0.302695
v 1.779256 0.416206 0.000000
v 2.103909 0.356295 0.000000
v 2.103909 0.259124 -0.259124
v 1.779256 0.302695 0.302695
v 2.103909 0.259124 0.259124
v 2.508174 0.222977 0.222977
v 2.508174 0.306594 0.000000
v 2.508174 0.222977 -0.222977
v 1.779256 0.000000 -0.416206
v 1.632185 0.000000 -0.446464
v 1.632185 0.324701 -0.324701
v 1.779256 -0.302695 -0.302695
v 1.632185 -0.324701 -0.324701
v 1.536845 -0.344310 -0.344310
v 1.536845 0.000000 -0.473427
v 1.536845 0.344310 -0.344310
v 1.632185 0.446464 0.000000
v 1.632185 0.324701 0.324701
v 1.536845 0.473427 0.000000
v 1.536845 0.344310 0.344310
v 0.935353 -0.695836 -0.000000
v 0.935353 -0.506063 0.506063
v 0.935353 -0.506063 -0.506063
v 1.141809 -0.444018 -0.444018
v 1.141809 -0.610524 -0.000000
v 1.141809 -0.444018 0.444018
v 2.508174 -0.000000 0.306594
v 2.872674 -0.000000 0.316166
v 2.872675 0.229939 0.229939
v 2.508174 -0.222977 0.222977
v 2.872675 -0.229939 0.229939
v 3.216249 -0.294287 0.294287
v 3.216249 -0.000000 0.404644
v 3.216249 0.294287 0.294287
v 2.103909 0.000000 -0.356295
v 2.103909 -0.259124 -0.259124
v 2.508174 0.000000 -0.306594
v 2.508174 -0.222977 -0.222977
v 1.779256 -0.000000 0.416206
v 2.103909 -0.000000 0.356295
v 1.779256 -0.302695 0.302695
v 2.103909 -0.259124 0.259124
v 1.779256 -0.416206 -0.000000
v 2.103909 -0.356295 -0.000000
v 2.508174 -0.306594 -0.000000
v 3.216249 -0.404644 -0.000000
v 3.560567 -0.530128 -0.000000
v 3.556426 -0.382613 0.382613
v 3.216249 -0.294287 -0.294287
v 3.556426 -0.382613 -0.382613
v 3.769661 -0.349890 -0.349890
v 3.811666 -0.443223 -0.000000
v 3.769661 -0.349890 0.349890
v 2.872674 -0.316166 -0.000000
v 2.872675 -0.229939 -0.229939
v 2.872674 0.316166 0.000000
v 2.872675 0.229939 -0.229939
v 3.216249 0.404644 0.000000
v 3.216249 0.294287 -0.294287
v 2.872674 0.000000 -0.316166
v 3.216249 0.000000 -0.404644
v 3.811666 0.000000 -0.443223
v 3.899817 0.000000 0.000000
v 3.769661 0.349890 -0.349890
v 3.811666 0.443223 0.000000
v 3.769661 0.349890 0.349890
v 3.811666 -0.000000 0.443223
v 3.560567 0.530128 0.000000
v 3.556426 0.382613 -0.382613
v 3.556426 0.382613 0.382613
v 3.560567 0.000000 -0.530128
v 3.560567 -0.000000 0.530128
v 1.357387 -0.530185 -0.000000
v 1.357387 -0.385589 0.385589
v 1.357387 -0.385589 -0.385589
v 1.536845 -0.473427 -0.000000
v 1.536845 -0.344310 0.344310
v 1.357387 0.530185 0.000000
v 1.357387 0.385589 -0.385589
v 1.357387 0.385589 0.385589
v 1.141809 0.000000 -0.610524
v 1.357387 0.000000 -0.530185
v 1.141809 -0.000000 0.610524
v 1.357387 -0.000000 0.530185
v 1.536845 -0.000000 0.473427
v 0.935353 0.000000 -0.695836
v 1.632185 -0.000000 0.446464
v 1.632185 -0.324701 0.324701
v 1.632185 -0.446464 -0.000000
v 0.935353 -0.000000 0.695836
v -0.890806 -0.181023 0.181023
v -0.890806 -0.248906 -0.000000
v -0.803217 -0.454581 -0.000000
v -0.803217 -0.330604 0.330604
v -0.890806 -0.181023 -0.181023
v -0.803217 -0.330604 -0.330604
v -0.890806 -0.000000 0.248906
v -0.803217 -0.000000 0.454581
v -0.803217 0.330604 0.330604
v -0.803217 0.454581 0.000000
v -0.803217 0.330604 -0.330604
v -0.890806 0.000000 -0.248906
v -0.803217 0.000000 -0.454581
v -1.104152 -0.079860 0.079860
v -1.124188 -0.000000 0.097360
v -1.166237 0.000000 0.000000
v -1.124188 -0.097360 -0.000000
v -1.124188 0.000000 -0.097360
v -1.104152 -0.079860 -0.079860
v -1.010743 -0.153060 -0.000000
v -1.008767 -0.111238 -0.111238
v -1.008767 -0.111238 0.111238
v -1.010743 0.000000 -0.153060
v -1.010743 -0.000000 0.153060
vt 0.537459 0.125000
vt 0.516741 0.108259
vt 0.527243 0.097757
vt 0.516741 0.141741
vt 0.523035 0.125000
vt 0.512018 0.137018
vt 0.514652 0.125000
vt 0.512018 0.112982
vt 0.375000 0.250000
vt 0.500000 0.371862
vt 0.369792 0.369792
vt 0.625000 0.250000
vt 0.500000 0.269665
vt 0.666667 0.458333
vt 0.500000 0.460070
vt 0.333333 0.458333
vt 0.664931 0.625000
vt 0.591146 0.533854
vt 0.591146 0.716146
vt 0.621528 0.625000
vt 0.583333 0.708333
vt 0.614583 0.625000
vt 0.583333 0.541667
vt 0.333333 0.791667
vt 0.500000 0.880208
vt 0.369792 0.880208
vt 0.666667 0.791667
vt 0.500000 0.789931
vt 0.625000 1.000000
vt 0.500000 1.000000
vt 0.375000 1.000000
vt 0.125000 0.500000
vt 0.244792 0.625000
vt 0.125000 0.625000
vt 0.244792 0.494792
vt 0.244792 0.755208
vt 0.125000 0.750000
vt 0.755208 0.625000
vt 0.875000 0.500000
vt 0.755208 0.494792
vt 0.875000 0.750000
vt 0.755208 0.755208
vt 0.614583 0.625000
vt 0.583333 0.541667
vt 0.583333 0.541667
vt 0.583333 0.708333
vt 0.614583 0.625000
vt 0.583333 0.708333
vt 0.614583 0.625000
vt 0.583333 0.541667
vt 0.500000 0.510417
vt 0.583333 0.541667
vt 0.416667 0.541667
vt 0.500000 0.510417
vt 0.416667 0.541667
vt 0.500000 0.510417
vt 0.583333 0.541667
vt 0.583333 0.708333
vt 0.614583 0.625000
vt 0.583333 0.708333
vt 0.614583 0.625000
vt 0.583333 0.708333
vt 0.335070 0.625000
vt 0.408854 0.716146
vt 0.408854 0.533854
vt 0.378472 0.625000
vt 0.416667 0.541667
vt 0.385417 0.625000
vt 0.416667 0.708333
vt 0.500000 0.739583
vt 0.583333 0.708333
vt 0.416667 0.708333
vt 0.500000 0.739583
vt 0.416667 0.708333
vt 0.500000 0.739583
vt 0.583333 0.708333
vt 0.416667 0.541667
vt 0.500000 0.510417
vt 0.500000 0.510417
vt 0.416667 0.541667
vt 0.500000 0.739583
vt 0.416667 0.708333
vt 0.500000 0.739583
vt 0.385417 0.625000
vt 0.416667 0.708333
vt 0.385417 0.625000
vt 0.385417 0.625000
vt 0.416667 0.708333
vt 0.390239 0.625000
vt 0.420235 0.704765
vt 0.416667 0.541667
vt 0.385417 0.625000
vt 0.437500 0.562500
vt 0.423804 0.625000
vt 0.437500 0.687500
vt 0.385417 0.625000
vt 0.416667 0.541667
vt 0.614583 0.625000
vt 0.583333 0.541667
vt 0.614583 0.625000
vt 0.583333 0.541667
vt 0.500000 0.510417
vt 0.500000 0.510417
vt 0.500000 0.625000
vt 0.562500 0.562500
vt 0.500000 0.548804
vt 0.562500 0.687500
vt 0.500000 0.701196
vt 0.609761 0.625000
vt 0.579765 0.545235
vt 0.576196 0.625000
vt 0.500000 0.515239
vt 0.420235 0.545235
vt 0.500000 0.734761
vt 0.579765 0.704765
vt 0.416667 0.708333
vt 0.416667 0.541667
vt 0.385417 0.625000
vt 0.416667 0.541667
vt 0.385417 0.625000
vt 0.416667 0.708333
vt 0.583333 0.541667
vt 0.583333 0.708333
vt 0.614583 0.625000
vt 0.500000 0.510417
vt 0.500000 0.510417
vt 0.500000 0.739583
vt 0.500000 0.739583
vt 0.500000 0.739583
vt 0.500000 0.503472
vt 0.500000 0.739583
vt 0.416667 0.708333
vt 0.385417 0.625000
vt 0.500000 0.746528
vt 0.472757 0.097757
vt 0.428895 0.125868
vt 0.448919 0.073919
vt 0.472757 0.152243
vt 0.462541 0.125000
vt 0.445447 0.180071
vt 0.380208 0.130208
vt 0.416667 0.041667
vt 0.500000 0.054763
vt 0.551081 0.073919
vt 0.500000 0.087541
vt 0.500000 0.010417
vt 0.583333 0.041667
vt 0.527243 0.152243
vt 0.571105 0.125868
vt 0.554554 0.180071
vt 0.619792 0.130208
vt 0.500000 0.199043
vt 0.500000 0.162459
vt 0.487982 0.112982
vt 0.500000 0.125000
vt 0.485348 0.125000
vt 0.500000 0.110348
vt 0.500000 0.139652
vt 0.487982 0.137018
vt 0.483259 0.141741
vt 0.483259 0.108259
vt 0.476966 0.125000
vt 0.500000 0.148035
vt 0.500000 0.101966
vt 0.630208 0.369792
vt 0.630208 0.880208
vt 0.875000 0.625000
vn -0.6022 0.7459 0.2846
vn -0.6022 0.7459 0.2845
vn -0.6059 0.7449 0.2793
vn -0.6022 0.7459 -0.2846
vn -0.6022 0.7459 -0.2845
vn -0.5972 0.7473 -0.2916
vn -0.4044 0.8589 -0.3142
vn -0.4072 0.8588 -0.3109
vn -0.4213 0.8580 -0.2937
vn -0.4044 0.8589 0.3142
vn -0.4072 0.8588 0.3109
vn -0.3912 0.8591 0.3300
vn -0.1612 -0.3465 -0.9241
vn -0.1612 0.3465 -0.9241
vn 0.0060 0.3511 -0.9363
vn 0.0060 -0.3511 -0.9363
vn 0.1635 0.9237 -0.3464
vn 0.1635 0.9237 0.3464
vn 0.3608 0.8732 0.3275
vn 0.3608 0.8732 -0.3275
vn 0.0060 -0.3511 0.9363
vn 0.0060 0.3511 0.9363
vn -0.1612 0.3465 0.9241
vn -0.1612 -0.3465 0.9241
vn -0.1612 -0.9241 -0.3465
vn 0.0060 -0.9363 -0.3511
vn 0.0060 -0.9363 0.3511
vn -0.1612 -0.9241 0.3465
vn 0.0060 0.9363 -0.3511
vn -0.1612 0.9241 -0.3465
vn -0.1612 0.9241 0.3465
vn 0.0060 0.9363 0.3511
vn 0.1703 0.9227 -0.3460
vn 0.1703 0.9227 0.3460
vn 0.1144 0.9302 0.3488
vn 0.1144 0.9302 -0.3488
vn 0.1892 0.3448 -0.9194
vn 0.1892 -0.3448 -0.9194
vn 0.2560 -0.3394 -0.9051
vn 0.2560 0.3394 -0.9051
vn 0.1892 0.9194 0.3448
vn 0.1892 0.9194 -0.3448
vn 0.2560 0.9051 -0.3394
vn 0.2560 0.9051 0.3394
vn 0.1635 -0.9237 0.3464
vn 0.1635 -0.9237 -0.3464
vn 0.3608 -0.8732 -0.3275
vn 0.3608 -0.8732 0.3275
vn -0.0246 0.3510 0.9360
vn -0.0246 -0.3510 0.9360
vn -0.2344 -0.3413 0.9102
vn -0.2344 0.3413 0.9102
vn 0.1703 -0.3460 -0.9227
vn 0.1703 0.3460 -0.9227
vn 0.1144 0.3488 -0.9302
vn 0.1144 -0.3488 -0.9302
vn 0.1703 0.3460 0.9227
vn 0.1703 -0.3460 0.9227
vn 0.1144 -0.3488 0.9302
vn 0.1144 0.3488 0.9302
vn 0.1703 -0.9227 0.3460
vn 0.1703 -0.9227 -0.3460
vn 0.1144 -0.9302 -0.3488
vn 0.1144 -0.9302 0.3488
vn -0.3202 -0.8860 0.3354
vn -0.3178 -0.8858 0.3381
vn -0.3202 -0.8860 -0.3354
vn -0.3230 -0.8862 -0.3323
vn 0.2732 -0.9118 -0.3064
vn 0.2377 -0.9140 -0.3288
vn 0.3140 -0.9073 -0.2797
vn 0.2732 -0.9118 0.3064
vn 0.2377 -0.9140 0.3288
vn 0.1948 -0.9145 0.3547
vn -0.0246 -0.9360 0.3510
vn -0.0246 -0.9360 -0.3510
vn -0.2344 -0.9102 -0.3413
vn -0.2344 -0.9102 0.3413
vn -0.0246 0.9360 -0.3510
vn -0.0246 0.9360 0.3510
vn -0.2344 0.9102 0.3413
vn -0.2344 0.9102 -0.3413
vn -0.0246 -0.3510 -0.9360
vn -0.0246 0.3510 -0.9360
vn -0.2344 0.3413 -0.9102
vn -0.2344 -0.3413 -0.9102
vn 0.9671 -0.1799 -0.1799
vn 0.9670 -0.1923 -0.1674
vn 0.9671 0.1799 -0.1799
vn 0.9670 0.1674 -0.1923
vn 0.9671 0.1799 0.1799
vn 0.9670 0.1674 0.1923
vn 0.9671 -0.1799 0.1799
vn 0.9670 -0.1923 0.1674
vn -0.3202 0.8860 -0.3354
vn -0.3178 0.8858 -0.3381
vn -0.3202 0.8860 0.3354
vn -0.3230 0.8862 0.3323
vn 0.2732 0.9118 0.3064
vn 0.2377 0.9140 0.3288
vn 0.3140 0.9073 0.2797
vn 0.2732 0.9118 -0.3064
vn 0.2377 0.9140 -0.3288
vn 0.1948 0.9145 -0.3547
vn -0.3202 -0.3354 -0.8860
vn -0.3178 -0.3381 -0.8858
vn -0.3202 0.3354 -0.8860
vn -0.3230 0.3323 -0.8862
vn 0.2732 0.3064 -0.9118
vn 0.2377 0.3288 -0.9140
vn 0.3140 0.2797 -0.9073
vn 0.2732 -0.3064 -0.9118
vn 0.2377 -0.3288 -0.9140
vn 0.1948 -0.3547 -0.9145
vn -0.3202 0.3354 0.8860
vn -0.3178 0.3381 0.8858
vn -0.3202 -0.3354 0.8860
vn -0.3230 -0.3323 0.8862
vn 0.2732 -0.3064 0.9118
vn 0.2377 -0.3288 0.9140
vn 0.3140 -0.2797 0.9073
vn 0.2732 0.3064 0.9118
vn 0.2377 0.3288 0.9140
vn 0.1948 0.3547 0.9145
vn 0.3295 -0.8841 0.3315
vn 0.3295 -0.8841 -0.3315
vn 0.2839 -0.8978 -0.3367
vn 0.2840 -0.8978 -0.3367
vn 0.2839 -0.8978 0.3367
vn 0.2840 -0.8978 0.3367
vn 0.3295 0.8841 -0.3315
vn 0.3295 0.8841 0.3315
vn 0.2839 0.8978 0.3367
vn 0.2840 0.8978 0.3367
vn 0.2839 0.8978 -0.3367
vn 0.2840 0.8978 -0.3367
vn 0.3295 -0.3315 -0.8841
vn 0.3295 0.3315 -0.8841
vn 0.2839 0.3367 -0.8978
vn 0.2840 0.3367 -0.8978
vn 0.2839 -0.3367 -0.8978
vn 0.2840 -0.3367 -0.8978
vn 0.3295 0.3315 0.8841
vn 0.3295 -0.3315 0.8841
vn 0.2839 -0.3367 0.8978
vn 0.2840 -0.3367 0.8978
vn 0.2839 0.3367 0.8978
vn 0.2840 0.3367 0.8978
vn 0.1635 -0.3464 -0.9237
vn 0.1635 0.3464 -0.9237
vn 0.3608 0.3275 -0.8732
vn 0.3608 -0.3275 -0.8732
vn 0.1892 -0.3448 0.9194
vn 0.1892 0.3448 0.9194
vn 0.2560 0.3394 0.9051
vn 0.2560 -0.3394 0.9051
vn 0.1892 -0.9194 -0.3448
vn 0.1892 -0.9194 0.3448
vn 0.2560 -0.9051 0.3394
vn 0.2560 -0.9051 -0.3394
vn 0.1635 0.3464 0.9237
vn 0.1635 -0.3464 0.9237
vn 0.3608 -0.3275 0.8732
vn 0.3608 0.3275 0.8732
vn -0.9103 -0.3877 0.1454
vn -0.9103 -0.3877 -0.1454
vn -0.6218 -0.7333 -0.2750
vn -0.6218 -0.7333 0.2750
vn -0.9103 0.1454 0.3877
vn -0.9103 -0.1454 0.3877
vn -0.9103 -0.1454 0.3876
vn -0.6218 -0.2750 0.7333
vn -0.6218 0.2750 0.7333
vn -0.9103 0.3877 -0.1454
vn -0.9103 0.3877 0.1454
vn -0.6218 0.7333 0.2750
vn -0.6218 0.7333 -0.2750
vn -0.9103 -0.1454 -0.3877
vn -0.9103 0.1454 -0.3877
vn -0.9103 0.1454 -0.3876
vn -0.6218 0.2750 -0.7333
vn -0.6218 -0.2750 -0.7333
vn -0.8763 -0.3406 0.3406
vn -0.8751 -0.3779 0.3024
vn -0.8763 0.3406 0.3406
vn -0.8751 0.3024 0.3779
vn -0.8763 0.3406 -0.3406
vn -0.8751 0.3024 -0.3779
vn -0.8763 -0.3406 -0.3406
vn -0.8751 -0.3779 -0.3024
vn -0.6022 -0.7459 -0.2846
vn -0.6022 -0.7459 -0.2845
vn -0.6059 -0.7449 -0.2793
vn -0.6022 -0.7459 0.2846
vn -0.6022 -0.7459 0.2845
vn -0.5972 -0.7473 0.2916
vn -0.4044 -0.8589 0.3142
vn -0.4072 -0.8588 0.3109
vn -0.4213 -0.8580 0.2937
vn -0.4044 -0.8589 -0.3142
vn -0.4072 -0.8588 -0.3109
vn -0.3912 -0.8591 -0.3300
vn -0.6022 0.2846 -0.7459
vn -0.6022 0.2845 -0.7459
vn -0.6059 0.2793 -0.7449
vn -0.6022 -0.2846 -0.7459
vn -0.6022 -0.2845 -0.7459
vn -0.5972 -0.2916 -0.7473
vn -0.4044 -0.3142 -0.8589
vn -0.4072 -0.3109 -0.8588
vn -0.4213 -0.2937 -0.8580
vn -0.4044 0.3142 -0.8589
vn -0.4072 0.3109 -0.8588
vn -0.3912 0.3300 -0.8591
vn -0.6022 -0.2846 0.7459
vn -0.6022 -0.2845 0.7459
vn -0.6059 -0.2793 0.7449
vn -0.6022 0.2846 0.7459
vn -0.6022 0.2845 0.7459
vn -0.5972 0.2916 0.7473
vn -0.4044 0.3142 0.8589
vn -0.4072 0.3109 0.8588
vn -0.4213 0.2937 0.8580
vn -0.4044 -0.3142 0.8589
vn -0.4072 -0.3109 0.8588
vn -0.3912 -0.3300 0.8591
vn -0.5972 0.7473 0.2916
vn -0.6059 0.7449 -0.2793
vn -0.3912 0.8591 -0.3300
vn -0.4213 0.8580 0.2937
vn -0.3230 -0.8862 0.3323
vn -0.3178 -0.8858 -0.3381
vn 0.1948 -0.9145 -0.3547
vn 0.3140 -0.9073 0.2797
vn 0.9670 -0.1674 -0.1923
vn 0.9670 0.1923 -0.1674
vn 0.9670 0.1923 0.1674
vn 0.9670 -0.1674 0.1923
vn -0.3230 0.8862 -0.3323
vn -0.3178 0.8858 0.3381
vn 0.1948 0.9145 0.3547
vn 0.3140 0.9073 -0.2797
vn -0.3230 -0.3323 -0.8862
vn -0.3178 0.3381 -0.8858
vn 0.1948 0.3547 -0.9145
vn 0.3140 -0.2797 -0.9073
vn -0.3230 0.3323 0.8862
vn -0.3178 -0.3381 0.8858
vn 0.1948 -0.3547 0.9145
vn 0.3140 0.2797 0.9073
vn -0.9103 0.1454 0.3876
vn -0.9103 -0.1454 -0.3876
vn -0.8751 -0.3024 0.3779
vn -0.8751 0.3779 0.3024
vn -0.8751 0.3779 -0.3024
vn -0.8751 -0.3024 -0.3779
vn -0.5972 -0.7473 -0.2916
vn -0.6059 -0.7449 0.2793
vn -0.3912 -0.8591 0.3300
vn -0.4213 -0.8580 -0.2937
vn -0.5972 0.2916 -0.7473
vn -0.6059 -0.2793 -0.7449
vn -0.3912 -0.3300 -0.8591
vn -0.4213 0.2937 -0.8580
vn -0.5972 -0.2916 0.7473
vn -0.6059 0.2793 0.7449
vn -0.3912 0.3300 0.8591
vn -0.4213 -0.2937 0.8580
usemtl None
s 1
f 2/1/1 4/2/2 1/3/3
f 2/1/4 6/4/5 3/5/6
f 3/5/7 7/6/8 8/7/9
f 3/5/10 9/8/11 4/2/12
f 10/9/13 12/10/13 13/11/13
f 14/12/14 12/10/14 11/13/14
f 12/10/15 16/14/15 17/15/15
f 12/10/16 18/16/16 13/11/16
f 19/17/17 21/18/17 16/14/17
f 19/17/18 23/19/18 20/20/18
f 20/20/19 24/21/19 25/22/19
f 20/20/20 26/23/20 21/18/20
f 27/24/21 29/25/21 30/26/21
f 22/27/22 29/25/22 28/28/22
f 29/25/23 32/29/23 33/30/23
f 29/25/24 34/31/24 30/26/24
f 10/32/25 35/33/25 36/34/25
f 18/16/26 35/33/26 13/35/26
f 35/33/27 27/24/27 30/36/27
f 35/33/28 34/37/28 36/34/28
f 16/14/29 38/38/29 19/17/29
f 14/39/30 38/38/30 15/40/30
f 38/38/31 32/41/31 31/42/31
f 38/38/32 22/27/32 19/17/32
f 41/43/33 43/44/33 40/45/33
f 41/43/34 45/46/34 42/47/34
f 42/47/35 46/48/35 47/49/35
f 42/47/36 48/50/36 43/44/36
f 40/45/37 50/51/37 51/52/37
f 52/53/38 50/51/38 49/54/38
f 53/55/39 55/56/39 50/51/39
f 51/52/40 55/56/40 56/57/40
f 44/58/41 57/59/41 58/60/41
f 40/45/42 57/59/42 41/43/42
f 51/52/43 59/61/43 57/59/43
f 58/60/44 59/61/44 60/62/44
f 37/63/45 62/64/45 27/24/45
f 37/63/46 63/65/46 61/66/46
f 61/66/47 64/67/47 65/68/47
f 61/66/48 66/69/48 62/64/48
f 46/48/49 68/70/49 69/71/49
f 70/72/50 68/70/50 67/73/50
f 71/74/51 73/75/51 68/70/51
f 69/71/52 73/75/52 74/76/52
f 49/54/53 76/77/53 52/53/53
f 49/54/54 43/44/54 75/78/54
f 75/78/55 48/50/55 77/79/55
f 75/78/56 78/80/56 76/77/56
f 79/81/57 45/46/57 44/58/57
f 79/81/58 82/82/58 80/83/58
f 80/83/59 70/72/59 67/73/59
f 80/83/60 46/48/60 45/46/60
f 83/84/61 82/82/61 81/85/61
f 83/84/62 76/77/62 84/86/62
f 84/86/63 78/80/63 85/87/63
f 84/86/64 70/72/64 82/82/64
f 72/88/65 87/89/65 88/90/66
f 89/91/67 87/89/67 86/92/68
f 87/89/69 91/93/70 92/94/71
f 87/89/72 93/95/73 88/90/74
f 70/72/75 94/96/75 71/74/75
f 78/80/76 94/96/76 85/87/76
f 95/97/77 86/92/77 94/96/77
f 71/74/78 86/92/78 72/88/78
f 48/50/79 96/98/79 97/99/79
f 46/48/80 96/98/80 47/49/80
f 69/71/81 98/100/81 96/98/81
f 97/99/82 98/100/82 99/101/82
f 78/80/83 100/102/83 95/97/83
f 48/50/84 100/102/84 77/79/84
f 97/99/85 101/103/85 100/102/85
f 95/97/86 101/103/86 89/91/86
f 91/93/87 103/104/87 92/94/88
f 104/105/89 103/104/89 102/106/90
f 103/104/91 106/107/91 107/108/92
f 103/104/93 93/95/93 92/94/94
f 99/101/95 108/109/95 109/110/96
f 74/76/97 108/109/97 98/100/98
f 108/109/99 106/107/100 105/111/101
f 108/109/102 104/105/103 109/110/104
f 89/91/105 111/112/105 90/113/106
f 99/101/107 111/112/107 101/103/108
f 111/112/109 104/105/110 102/106/111
f 111/112/112 91/93/113 90/113/114
f 74/76/115 112/114/115 110/115/116
f 72/88/117 112/114/117 73/75/118
f 112/114/119 93/95/120 107/108/121
f 112/114/122 106/107/123 110/115/124
f 65/68/125 114/116/125 66/69/125
f 65/68/126 115/117/126 113/118/126
f 113/118/127 54/119/128 116/120/127
f 113/118/129 117/121/130 114/116/130
f 25/22/131 119/122/131 26/23/131
f 25/22/132 120/123/132 118/124/132
f 118/124/133 60/62/134 59/61/133
f 118/124/135 56/57/136 119/122/136
f 121/125/137 115/117/137 64/67/137
f 121/125/138 119/122/138 122/126/138
f 122/126/139 56/57/140 55/56/139
f 122/126/141 54/119/142 115/117/142
f 123/127/143 120/123/143 24/21/143
f 123/127/144 114/116/144 124/128/144
f 124/128/145 117/121/146 125/129/145
f 124/128/147 60/62/148 120/123/148
f 17/15/149 63/65/149 18/16/149
f 17/15/150 21/18/150 126/130/150
f 126/130/151 26/23/151 121/125/151
f 126/130/152 64/67/152 63/65/152
f 81/85/153 127/131/153 128/132/153
f 44/58/154 127/131/154 79/81/154
f 58/60/155 125/129/155 127/131/155
f 128/132/156 125/129/156 117/121/156
f 52/53/157 129/133/157 53/55/157
f 81/85/158 129/133/158 83/84/158
f 128/132/159 116/120/159 129/133/159
f 53/55/160 116/120/160 54/119/160
f 28/28/161 23/19/161 22/27/161
f 28/28/162 62/64/162 130/134/162
f 130/134/163 66/69/163 123/127/163
f 130/134/164 24/21/164 23/19/164
f 131/135/165 133/136/165 134/137/165
f 135/138/166 133/136/166 132/139/166
f 136/140/167 36/141/167 133/136/167
f 134/137/168 36/141/168 34/142/168
f 1/3/169 138/143/169 139/144/169
f 131/135/170 138/143/170 137/145/171
f 134/137/172 33/146/172 138/143/172
f 139/144/173 33/146/173 32/147/173
f 5/148/174 140/149/174 141/150/174
f 1/3/175 140/149/175 2/1/175
f 139/144/176 39/151/176 140/149/176
f 141/150/177 39/151/177 14/12/177
f 135/138/178 143/152/178 136/140/178
f 5/148/179 143/152/179 142/153/180
f 141/150/181 11/13/181 143/152/181
f 136/140/182 11/13/182 10/9/182
f 144/154/183 146/155/183 147/156/184
f 9/8/185 146/155/185 145/157/186
f 146/155/187 7/6/187 148/158/188
f 146/155/189 149/159/189 147/156/190
f 132/139/191 151/160/192 135/138/193
f 132/139/194 152/161/195 150/162/196
f 150/162/197 144/154/198 147/156/199
f 150/162/200 149/159/201 151/160/202
f 142/153/203 6/4/204 5/148/205
f 142/153/206 151/160/207 153/163/208
f 153/163/209 149/159/210 148/158/211
f 153/163/212 7/6/213 6/4/214
f 137/145/215 152/161/216 131/135/217
f 137/145/218 4/2/219 154/164/220
f 154/164/221 9/8/222 145/157/223
f 154/164/224 144/154/225 152/161/226
f 2/1/1 3/5/227 4/2/2
f 2/1/4 5/148/228 6/4/5
f 3/5/7 6/4/229 7/6/8
f 3/5/10 8/7/230 9/8/11
f 10/9/13 11/13/13 12/10/13
f 14/12/14 15/165/14 12/10/14
f 12/10/15 15/165/15 16/14/15
f 12/10/16 17/15/16 18/16/16
f 19/17/17 20/20/17 21/18/17
f 19/17/18 22/27/18 23/19/18
f 20/20/19 23/19/19 24/21/19
f 20/20/20 25/22/20 26/23/20
f 27/24/21 28/28/21 29/25/21
f 22/27/22 31/166/22 29/25/22
f 29/25/23 31/166/23 32/29/23
f 29/25/24 33/30/24 34/31/24
f 10/32/25 13/35/25 35/33/25
f 18/16/26 37/63/26 35/33/26
f 35/33/27 37/63/27 27/24/27
f 35/33/28 30/36/28 34/37/28
f 16/14/29 15/40/29 38/38/29
f 14/39/30 39/167/30 38/38/30
f 38/38/31 39/167/31 32/41/31
f 38/38/32 31/42/32 22/27/32
f 41/43/33 42/47/33 43/44/33
f 41/43/34 44/58/34 45/46/34
f 42/47/35 45/46/35 46/48/35
f 42/47/36 47/49/36 48/50/36
f 40/45/37 49/54/37 50/51/37
f 52/53/38 53/55/38 50/51/38
f 53/55/39 54/119/39 55/56/39
f 51/52/40 50/51/40 55/56/40
f 44/58/41 41/43/41 57/59/41
f 40/45/42 51/52/42 57/59/42
f 51/52/43 56/57/43 59/61/43
f 58/60/44 57/59/44 59/61/44
f 37/63/45 61/66/45 62/64/45
f 37/63/46 18/16/46 63/65/46
f 61/66/47 63/65/47 64/67/47
f 61/66/48 65/68/48 66/69/48
f 46/48/49 67/73/49 68/70/49
f 70/72/50 71/74/50 68/70/50
f 71/74/51 72/88/51 73/75/51
f 69/71/52 68/70/52 73/75/52
f 49/54/53 75/78/53 76/77/53
f 49/54/54 40/45/54 43/44/54
f 75/78/55 43/44/55 48/50/55
f 75/78/56 77/79/56 78/80/56
f 79/81/57 80/83/57 45/46/57
f 79/81/58 81/85/58 82/82/58
f 80/83/59 82/82/59 70/72/59
f 80/83/60 67/73/60 46/48/60
f 83/84/61 84/86/61 82/82/61
f 83/84/62 52/53/62 76/77/62
f 84/86/63 76/77/63 78/80/63
f 84/86/64 85/87/64 70/72/64
f 72/88/65 86/92/231 87/89/65
f 89/91/67 90/113/232 87/89/67
f 87/89/69 90/113/233 91/93/70
f 87/89/72 92/94/234 93/95/73
f 70/72/75 85/87/75 94/96/75
f 78/80/76 95/97/76 94/96/76
f 95/97/77 89/91/77 86/92/77
f 71/74/78 94/96/78 86/92/78
f 48/50/79 47/49/79 96/98/79
f 46/48/80 69/71/80 96/98/80
f 69/71/81 74/76/81 98/100/81
f 97/99/82 96/98/82 98/100/82
f 78/80/83 77/79/83 100/102/83
f 48/50/84 97/99/84 100/102/84
f 97/99/85 99/101/85 101/103/85
f 95/97/86 100/102/86 101/103/86
f 91/93/87 102/106/235 103/104/87
f 104/105/89 105/111/236 103/104/89
f 103/104/91 105/111/237 106/107/91
f 103/104/93 107/108/238 93/95/93
f 99/101/95 98/100/239 108/109/95
f 74/76/97 110/115/240 108/109/97
f 108/109/99 110/115/241 106/107/100
f 108/109/102 105/111/242 104/105/103
f 89/91/105 101/103/243 111/112/105
f 99/101/107 109/110/244 111/112/107
f 111/112/109 109/110/245 104/105/110
f 111/112/112 102/106/246 91/93/113
f 74/76/115 73/75/247 112/114/115
f 72/88/117 88/90/248 112/114/117
f 112/114/119 88/90/249 93/95/120
f 112/114/122 107/108/250 106/107/123
f 65/68/125 113/118/125 114/116/125
f 65/68/126 64/67/126 115/117/126
f 113/118/127 115/117/128 54/119/128
f 113/118/129 116/120/129 117/121/130
f 25/22/131 118/124/131 119/122/131
f 25/22/132 24/21/132 120/123/132
f 118/124/133 120/123/134 60/62/134
f 118/124/135 59/61/135 56/57/136
f 121/125/137 122/126/137 115/117/137
f 121/125/138 26/23/138 119/122/138
f 122/126/139 119/122/140 56/57/140
f 122/126/141 55/56/141 54/119/142
f 123/127/143 124/128/143 120/123/143
f 123/127/144 66/69/144 114/116/144
f 124/128/145 114/116/146 117/121/146
f 124/128/147 125/129/147 60/62/148
f 17/15/149 126/130/149 63/65/149
f 17/15/150 16/14/150 21/18/150
f 126/130/151 21/18/151 26/23/151
f 126/130/152 121/125/152 64/67/152
f 81/85/153 79/81/153 127/131/153
f 44/58/154 58/60/154 127/131/154
f 58/60/155 60/62/155 125/129/155
f 128/132/156 127/131/156 125/129/156
f 52/53/157 83/84/157 129/133/157
f 81/85/158 128/132/158 129/133/158
f 128/132/159 117/121/159 116/120/159
f 53/55/160 129/133/160 116/120/160
f 28/28/161 130/134/161 23/19/161
f 28/28/162 27/24/162 62/64/162
f 130/134/163 62/64/163 66/69/163
f 130/134/164 123/127/164 24/21/164
f 131/135/165 132/139/165 133/136/165
f 135/138/166 136/140/166 133/136/166
f 136/140/167 10/9/167 36/141/167
f 134/137/168 133/136/168 36/141/168
f 1/3/169 137/145/251 138/143/169
f 131/135/170 134/137/170 138/143/170
f 134/137/172 34/142/172 33/146/172
f 139/144/173 138/143/173 33/146/173
f 5/148/174 2/1/174 140/149/174
f 1/3/175 139/144/175 140/149/175
f 139/144/176 32/147/176 39/151/176
f 141/150/177 140/149/177 39/151/177
f 135/138/178 142/153/252 143/152/178
f 5/148/179 141/150/179 143/152/179
f 141/150/181 14/12/181 11/13/181
f 136/140/182 143/152/182 11/13/182
f 144/154/183 145/157/253 146/155/183
f 9/8/185 8/7/254 146/155/185
f 146/155/187 8/7/255 7/6/187
f 146/155/189 148/158/256 149/159/189
f 132/139/191 150/162/257 151/160/192
f 132/139/194 131/135/258 152/161/195
f 150/162/197 152/161/259 144/154/198
f 150/162/200 147/156/260 149/159/201
f 142/153/203 153/163/261 6/4/204
f 142/153/206 135/138/262 151/160/207
f 153/163/209 151/160/263 149/159/210
f 153/163/212 148/158/264 7/6/213
f 137/145/215 154/164/265 152/161/216
f 137/145/218 1/3/266 4/2/219
f 154/164/221 4/2/267 9/8/222
f 154/164/224 145/157/268 144/154/225
