# Blender v2.90.0 OBJ File: 'Sword_Texture_01.blend'
# www.blender.org
mtllib sword.mtl
o Sword_Object_Sword_Geometry
v -0.533939 -0.037626 0.037626
v -0.533939 0.037626 0.037626
v -0.533939 -0.037626 -0.037626
v -0.533939 0.037626 -0.037626
v 0.533939 -0.115409 -0.115409
v 0.533939 0.115409 -0.115409
v 0.650000 0.115409 -0.115409
v 0.650000 -0.115409 -0.115409
v 0.650000 -0.115409 0.115409
v 0.650000 0.115409 0.115409
v 0.709883 -0.009896 -0.582813
v 0.709883 0.009896 -0.582813
v 0.732914 0.009896 -0.582813
v 0.732914 -0.009896 -0.582813
v 0.709883 0.009896 0.582813
v 0.709883 -0.009896 0.582813
v 0.732914 -0.009896 0.582813
v 0.732914 0.009896 0.582813
v 0.732914 -0.037357 0.349111
v 0.732914 0.037357 0.349111
v 0.709883 0.037357 -0.349111
v 0.709883 -0.037357 -0.349111
v 0.732914 0.037357 -0.349111
v 0.732914 -0.037357 -0.349111
v -0.439356 0.105040 0.105040
v -0.323647 0.113737 0.113737
v -0.403641 0.120611 0.120611
v -0.361288 0.123795 0.123795
v -0.323647 -0.113737 0.113737
v -0.439356 -0.105040 0.105040
v -0.361288 -0.123795 0.123795
v -0.403641 -0.120611 0.120611
v -0.439356 0.105040 -0.105040
v -0.323647 0.113737 -0.113737
v -0.403641 0.120611 -0.120611
v -0.361288 0.123795 -0.123795
v -0.439356 -0.105040 -0.105040
v -0.323647 -0.113737 -0.113737
v -0.403641 -0.120611 -0.120611
v -0.361288 -0.123795 -0.123795
v 0.515943 -0.091934 -0.091934
v 0.515943 0.091934 -0.091934
v 0.497946 0.068459 -0.068459
v -0.234327 0.068459 -0.068459
v -0.234327 -0.068459 -0.068459
v 0.497946 -0.068459 -0.068459
v 0.650000 -0.076986 0.000000
v 2.710429 -0.126403 0.000000
v 0.650000 0.000000 0.257147
v 0.650000 0.000000 -0.257147
v 0.650000 0.076986 0.000000
v 2.710429 0.000000 0.422204
v 2.710429 0.000000 -0.422204
v 2.710429 0.126403 0.000000
v 3.313524 0.000000 0.000000
v 0.709883 0.037357 0.349111
v 0.533939 0.115409 0.115409
v 0.533939 -0.115409 0.115409
v 0.709883 -0.037357 0.349111
v -0.234327 0.068459 0.068459
v 0.497946 0.068459 0.068459
v 0.497946 -0.068459 0.068459
v -0.234327 -0.068459 0.068459
v 0.515943 -0.091934 0.091934
v 0.515943 0.091934 0.091934
vt 0.764472 0.717779
vt 0.774680 0.662426
vt 0.774680 0.725880
vt 0.784888 0.654325
vt 0.824941 0.733982
vt 0.784888 0.733982
vt 0.415202 0.654938
vt 0.471998 0.727957
vt 0.429444 0.730368
vt 0.688523 0.891541
vt 0.768019 0.971360
vt 0.688362 0.971198
vt 0.853704 0.918813
vt 0.768180 0.891703
vt 0.656606 0.786242
vt 0.588000 0.718944
vt 0.604588 0.687378
vt 0.743632 0.733982
vt 0.703579 0.654325
vt 0.743632 0.654325
vt 0.514271 0.927601
vt 0.522205 0.934448
vt 0.514257 0.934432
vt 0.580560 0.861575
vt 0.541027 0.786242
vt 0.569264 0.779601
vt 0.587577 0.860653
vt 0.577676 0.781055
vt 0.602891 0.918304
vt 0.602838 0.944089
vt 0.574634 0.863326
vt 0.534770 0.791958
vt 0.696139 0.861575
vt 0.684843 0.779601
vt 0.703156 0.860653
vt 0.693255 0.781055
vt 0.934337 0.928453
vt 0.853651 0.944597
vt 0.690213 0.863326
vt 0.650349 0.791958
vt 0.703156 0.684030
vt 0.670536 0.667103
vt 0.472421 0.718944
vt 0.489009 0.687378
vt 0.587577 0.684030
vt 0.554957 0.667103
vt 0.402478 0.786795
vt 0.353564 0.822073
vt 0.348720 0.786363
vt 0.545652 0.660714
vt 0.493118 0.676865
vt 0.465262 0.786909
vt 0.429086 0.843217
vt 0.431825 0.786832
vt 0.753840 0.662426
vt 0.753840 0.725880
vt 0.022782 0.715248
vt 0.275495 0.762499
vt 0.022782 0.762499
vt 0.275495 0.857002
vt 0.022782 0.809751
vt 0.275495 0.809751
vt 0.332710 0.726164
vt 0.398195 0.736431
vt 0.353862 0.750671
vt 0.332218 0.846071
vt 0.397802 0.836930
vt 0.368352 0.901206
vt 0.419115 0.731821
vt 0.422148 0.786821
vt 0.408427 0.734059
vt 0.412076 0.786980
vt 0.399659 0.654325
vt 0.383277 0.660058
vt 0.370398 0.671054
vt 0.380030 0.912489
vt 0.407617 0.839520
vt 0.396007 0.919302
vt 0.418334 0.841507
vt 0.412428 0.919540
vt 0.471998 0.846402
vt 0.460818 0.907509
vt 0.764049 0.670527
vt 0.764049 0.717779
vt 0.497227 0.666351
vt 0.608697 0.676865
vt 0.934323 0.935284
vt 0.942285 0.928470
vt 0.942271 0.935300
vt 0.225547 0.004264
vt 0.230663 0.167206
vt 0.003190 0.167206
vt 0.225546 0.330148
vt 0.993409 0.268820
vt 0.992880 0.167206
vt 0.993409 0.065591
vt 0.230663 0.493545
vt 0.225546 0.656487
vt 0.003190 0.493545
vt 0.225546 0.330603
vt 0.993409 0.391930
vt 0.993409 0.595159
vt 0.992880 0.493545
vt 0.275495 0.667996
vt 0.275495 0.715248
vt 0.651926 0.654325
vt 0.612806 0.666351
vt 0.318170 0.745529
vt 0.764472 0.670527
vt 0.824941 0.654325
vt 0.462382 0.667799
vt 0.703579 0.733982
vt 0.522219 0.927617
vt 0.567337 0.866513
vt 0.682916 0.866513
vt 0.022782 0.857002
vt 0.536347 0.654325
vt 0.661231 0.660714
vt 0.022782 0.667997
vt 0.313028 0.781221
vn -0.7936 0.6084 0.0000
vn 0.0000 1.0000 0.0000
vn 0.4521 0.0000 -0.8919
vn 1.0000 0.0000 0.0000
vn 0.9424 0.0000 -0.3344
vn 0.0000 0.9485 0.3168
vn 0.0000 -1.0000 0.0000
vn 0.0000 0.0000 -1.0000
vn -1.0000 0.0000 0.0000
vn 0.0000 0.9932 -0.1167
vn 0.0000 -0.9932 -0.1167
vn 0.0000 -0.9932 0.1167
vn 0.0000 0.9932 0.1167
vn 0.0000 -0.9485 0.3168
vn -0.7989 0.0000 0.6015
vn 0.0000 -0.9485 -0.3168
vn 0.9424 0.0000 0.3344
vn 0.0000 0.9485 -0.3168
vn -0.7989 0.0000 -0.6015
vn -0.5804 0.0000 0.8143
vn -0.7936 0.0000 -0.6084
vn 0.4521 0.0000 0.8919
vn -0.7936 -0.6084 0.0000
vn -0.5804 0.0000 -0.8143
vn -0.5804 -0.8143 0.0000
vn -0.5804 0.8143 0.0000
vn 0.4521 -0.8919 0.0000
vn 0.2581 -0.9661 0.0000
vn -0.0750 -0.9972 0.0000
vn -0.3997 -0.9167 0.0000
vn 0.2581 0.0000 -0.9661
vn -0.0750 0.0000 -0.9972
vn -0.3997 0.0000 -0.9167
vn -0.3997 0.9167 0.0000
vn -0.0750 0.9972 0.0000
vn 0.2581 0.9661 0.0000
vn -0.3997 0.0000 0.9167
vn -0.0750 0.0000 0.9972
vn 0.2581 0.0000 0.9661
vn 0.4521 0.8919 0.0000
vn -0.7936 0.0000 0.6084
vn 0.0000 0.0000 1.0000
vn 0.1969 -0.9392 0.2812
vn 0.1969 -0.9392 -0.2812
vn -0.0230 -0.9577 -0.2867
vn -0.0230 -0.9577 0.2867
vn 0.1969 0.9392 0.2812
vn 0.1969 0.9392 -0.2812
vn -0.0230 0.9577 -0.2867
vn -0.0230 0.9577 0.2867
usemtl Sword_Material
s off
f 43/1/1 65/2/1 42/3/1
f 57/4/2 7/5/2 6/6/2
f 34/7/3 45/8/3 38/9/3
f 7/10/4 9/11/4 8/12/4
f 20/13/5 9/11/5 10/14/5
f 56/15/6 10/16/6 57/17/6
f 5/18/7 9/19/7 58/20/7
f 12/21/8 14/22/8 11/23/8
f 12/24/9 22/25/9 21/26/9
f 13/27/10 21/26/10 23/28/10
f 14/22/4 23/29/4 24/30/4
f 11/31/11 24/32/11 22/25/11
f 16/33/9 56/15/9 59/34/9
f 17/35/12 59/34/12 19/36/12
f 18/37/4 19/38/4 20/13/4
f 15/39/13 20/40/13 56/15/13
f 9/41/14 59/34/14 58/42/14
f 57/17/15 59/34/15 56/15/15
f 22/25/16 8/43/16 5/44/16
f 24/30/17 7/10/17 8/12/17
f 7/45/18 21/26/18 6/46/18
f 21/26/19 5/44/19 6/46/19
f 30/47/20 2/48/20 1/49/20
f 42/50/21 5/44/21 41/51/21
f 63/52/22 26/53/22 29/54/22
f 5/18/23 64/55/23 41/56/23
f 60/57/2 43/58/2 44/59/2
f 62/60/7 45/61/7 46/62/7
f 4/63/24 37/64/24 3/65/24
f 37/64/25 1/49/25 3/65/25
f 4/66/26 25/67/26 33/68/26
f 45/8/27 29/54/27 38/9/27
f 29/54/28 40/69/28 38/9/28
f 31/70/29 39/71/29 40/69/29
f 32/72/30 37/64/30 39/71/30
f 38/9/31 36/73/31 34/7/31
f 40/69/32 35/74/32 36/73/32
f 39/71/33 33/75/33 35/74/33
f 25/67/34 35/76/34 33/68/34
f 27/77/35 36/78/35 35/76/35
f 28/79/36 34/80/36 36/78/36
f 30/47/37 27/77/37 25/67/37
f 32/72/38 28/79/38 27/77/38
f 31/70/39 26/53/39 28/79/39
f 34/80/40 60/81/40 44/82/40
f 41/56/23 62/83/23 46/84/23
f 46/85/21 42/50/21 41/51/21
f 65/86/41 58/42/41 57/17/41
f 42/3/1 57/4/1 6/6/1
f 44/59/8 46/62/8 45/61/8
f 17/87/42 15/88/42 16/89/42
f 52/90/43 48/91/43 55/92/43
f 48/91/44 53/93/44 55/92/44
f 50/94/45 48/91/45 47/95/45
f 49/96/46 48/91/46 52/90/46
f 54/97/47 52/98/47 55/99/47
f 53/100/48 54/97/48 55/99/48
f 50/101/49 54/97/49 53/100/49
f 49/102/50 54/97/50 51/103/50
f 60/57/42 62/104/42 61/105/42
f 62/106/41 65/86/41 61/107/41
f 1/49/9 4/108/9 3/65/9
f 43/1/1 61/109/1 65/2/1
f 57/4/2 10/110/2 7/5/2
f 34/7/3 44/111/3 45/8/3
f 7/10/4 10/14/4 9/11/4
f 20/13/5 19/38/5 9/11/5
f 56/15/6 20/40/6 10/16/6
f 5/18/7 8/112/7 9/19/7
f 12/21/8 13/113/8 14/22/8
f 12/24/9 11/31/9 22/25/9
f 13/27/10 12/24/10 21/26/10
f 14/22/4 13/113/4 23/29/4
f 11/31/11 14/114/11 24/32/11
f 16/33/9 15/39/9 56/15/9
f 17/35/12 16/33/12 59/34/12
f 18/37/4 17/87/4 19/38/4
f 15/39/13 18/115/13 20/40/13
f 9/41/14 19/36/14 59/34/14
f 57/17/15 58/42/15 59/34/15
f 22/25/16 24/32/16 8/43/16
f 24/30/17 23/29/17 7/10/17
f 7/45/18 23/28/18 21/26/18
f 21/26/19 22/25/19 5/44/19
f 30/47/20 25/67/20 2/48/20
f 42/50/21 6/46/21 5/44/21
f 63/52/22 60/81/22 26/53/22
f 5/18/23 58/20/23 64/55/23
f 60/57/2 61/105/2 43/58/2
f 62/60/7 63/116/7 45/61/7
f 4/63/24 33/75/24 37/64/24
f 37/64/25 30/47/25 1/49/25
f 4/66/26 2/48/26 25/67/26
f 45/8/27 63/52/27 29/54/27
f 29/54/28 31/70/28 40/69/28
f 31/70/29 32/72/29 39/71/29
f 32/72/30 30/47/30 37/64/30
f 38/9/31 40/69/31 36/73/31
f 40/69/32 39/71/32 35/74/32
f 39/71/33 37/64/33 33/75/33
f 25/67/34 27/77/34 35/76/34
f 27/77/35 28/79/35 36/78/35
f 28/79/36 26/53/36 34/80/36
f 30/47/37 32/72/37 27/77/37
f 32/72/38 31/70/38 28/79/38
f 31/70/39 29/54/39 26/53/39
f 34/80/40 26/53/40 60/81/40
f 41/56/23 64/55/23 62/83/23
f 46/85/21 43/117/21 42/50/21
f 65/86/41 64/118/41 58/42/41
f 42/3/1 65/2/1 57/4/1
f 44/59/8 43/58/8 46/62/8
f 17/87/42 18/37/42 15/88/42
f 50/94/45 53/93/45 48/91/45
f 49/96/46 47/95/46 48/91/46
f 50/101/49 51/103/49 54/97/49
f 49/102/50 52/98/50 54/97/50
f 60/57/42 63/119/42 62/104/42
f 62/106/41 64/118/41 65/86/41
f 1/49/9 2/120/9 4/108/9
